<?xml version="1.0" encoding="UTF-8"?>
<svg width="100px" height="32px" viewBox="0 0 100 32" version="1.1" xmlns="http://www.w3.org/2000/svg" xmlns:xlink="http://www.w3.org/1999/xlink">
    <title>Google Logo</title>
    <g stroke="none" stroke-width="1" fill="none" fill-rule="evenodd">
        <g transform="translate(5, 5)" fill-rule="nonzero">
            <path d="M20.64,10.977 C20.64,10.198 20.582,9.451 20.474,8.736 L10.542,8.736 L10.542,12.753 L16.229,12.753 C15.974,14.064 15.209,15.187 14.044,15.931 L14.044,18.576 L17.4,18.576 C19.388,16.733 20.64,14.113 20.64,10.977 Z" fill="#4285F4"></path>
            <path d="M10.542,21.455 C13.347,21.455 15.722,20.486 17.4,18.576 L14.044,15.931 C13.107,16.572 11.924,16.945 10.542,16.945 C7.799,16.945 5.476,15.116 4.634,12.627 L1.17,12.627 L1.17,15.356 C2.839,18.944 6.416,21.455 10.542,21.455 Z" fill="#34A853"></path>
            <path d="M4.634,12.627 C4.415,11.986 4.293,11.303 4.293,10.598 C4.293,9.893 4.415,9.21 4.634,8.569 L4.634,5.84 L1.17,5.84 C0.425,7.263 0,8.885 0,10.598 C0,12.311 0.425,13.933 1.17,15.356 L4.634,12.627 Z" fill="#FBBC05"></path>
            <path d="M10.542,4.251 C12.081,4.251 13.471,4.795 14.561,5.84 L17.529,2.872 C15.722,1.192 13.347,0.169 10.542,0.169 C6.416,0.169 2.839,2.68 1.17,6.268 L4.634,8.997 C5.476,6.508 7.799,4.251 10.542,4.251 Z" fill="#EA4335"></path>
        </g>
    </g>
</svg>
