<?xml version="1.0" encoding="UTF-8"?>
<svg width="400px" height="300px" viewBox="0 0 400 300" version="1.1" xmlns="http://www.w3.org/2000/svg" xmlns:xlink="http://www.w3.org/1999/xlink">
    <title>Kids on Flying Book</title>
    <g stroke="none" stroke-width="1" fill="none" fill-rule="evenodd">
        <g transform="translate(20, 20)">
            <!-- Flying Book -->
            <path d="M20,150 C20,120 320,120 320,150 L320,180 C320,210 20,210 20,180 Z" fill="#FF5252"></path> <!-- Book cover -->
            <path d="M20,150 C20,120 170,110 170,140 L170,170 C170,200 20,190 20,150 Z" fill="#FFFFFF"></path> <!-- Pages -->
            <path d="M170,140 C170,110 320,120 320,150 L320,180 C320,210 170,200 170,170 Z" fill="#FFFFFF"></path> <!-- Pages -->
            
            <!-- Boy -->
            <circle fill="#FFD7B5" cx="100" cy="80" r="30"></circle> <!-- Head -->
            <rect fill="#4A90E2" x="85" y="110" width="30" height="40" rx="5"></rect> <!-- Shirt -->
            <rect fill="#6A4C93" x="85" y="150" width="30" height="30" rx="2"></rect> <!-- Pants -->
            <rect fill="#FF9800" x="75" y="110" width="10" height="40"></rect> <!-- Backpack strap -->
            <path d="M75,110 C75,100 85,90 100,90 C115,90 125,100 125,110" fill="#FF9800"></path> <!-- Backpack top -->
            
            <!-- Boy's face -->
            <circle fill="#333333" cx="90" cy="75" r="5"></circle> <!-- Left eye -->
            <circle fill="#333333" cx="110" cy="75" r="5"></circle> <!-- Right eye -->
            <circle fill="white" cx="92" cy="73" r="2"></circle> <!-- Left eye highlight -->
            <circle fill="white" cx="112" cy="73" r="2"></circle> <!-- Right eye highlight -->
            <path d="M90,95 C95,105 105,105 110,95" stroke="#333333" stroke-width="2" fill="none"></path> <!-- Smile -->
            
            <!-- Boy's hair -->
            <path d="M70,60 C70,40 130,40 130,60" fill="#663300"></path>
            <path d="M70,60 C70,45 85,30 100,30 C115,30 130,45 130,60" fill="#663300"></path>
            
            <!-- Girl -->
            <circle fill="#FFDFC4" cx="240" cy="80" r="30"></circle> <!-- Head -->
            <rect fill="#FF9999" x="225" y="110" width="30" height="40" rx="5"></rect> <!-- Dress -->
            <rect fill="#FF9999" x="225" y="150" width="30" height="30" rx="2"></rect> <!-- Skirt -->
            <rect fill="#FFEB3B" x="255" y="110" width="10" height="40"></rect> <!-- Backpack strap -->
            <path d="M255,110 C255,100 265,90 240,90 C215,90 225,100 225,110" fill="#FFEB3B"></path> <!-- Backpack top -->
            
            <!-- Girl's face -->
            <circle fill="#333333" cx="230" cy="75" r="5"></circle> <!-- Left eye -->
            <circle fill="#333333" cx="250" cy="75" r="5"></circle> <!-- Right eye -->
            <circle fill="white" cx="232" cy="73" r="2"></circle> <!-- Left eye highlight -->
            <circle fill="white" cx="252" cy="73" r="2"></circle> <!-- Right eye highlight -->
            <path d="M230,95 C235,105 245,105 250,95" stroke="#333333" stroke-width="2" fill="none"></path> <!-- Smile -->
            
            <!-- Girl's hair -->
            <path d="M210,60 C210,30 270,30 270,60" fill="#FFC107"></path>
            <path d="M210,60 C210,40 225,20 240,20 C255,20 270,40 270,60" fill="#FFC107"></path>
            
            <!-- Paper airplane -->
            <path d="M330,40 L360,70 L330,100 Z" fill="#8C9EFF" transform="rotate(-30 330 70)"></path>
            <path d="M340,55 L355,70 L340,85 Z" fill="#5C6BC0" transform="rotate(-30 340 70)"></path>
            
            <!-- Clouds -->
            <circle fill="#F5F5F5" cx="50" cy="40" r="20"></circle>
            <circle fill="#F5F5F5" cx="70" cy="30" r="15"></circle>
            <circle fill="#F5F5F5" cx="90" cy="40" r="20"></circle>
            
            <circle fill="#F5F5F5" cx="280" cy="40" r="20"></circle>
            <circle fill="#F5F5F5" cx="300" cy="30" r="15"></circle>
            <circle fill="#F5F5F5" cx="320" cy="40" r="20"></circle>
            
            <!-- Girl's hand pointing -->
            <path d="M270,120 L290,100" stroke="#FFDFC4" stroke-width="5" stroke-linecap="round"></path>
        </g>
    </g>
</svg>
