<?xml version="1.0" encoding="UTF-8"?>
<svg width="100px" height="32px" viewBox="0 0 100 32" version="1.1" xmlns="http://www.w3.org/2000/svg" xmlns:xlink="http://www.w3.org/1999/xlink">
    <title>User Avatars</title>
    <g stroke="none" stroke-width="1" fill="none" fill-rule="evenodd">
        <g transform="translate(5, 2)">
            <!-- Avatar 1 -->
            <circle fill="#4285F4" cx="12" cy="14" r="12"></circle>
            <circle fill="#FFFFFF" cx="12" cy="10" r="5"></circle>
            <path d="M4,24 C4,18 8,16 12,16 C16,16 20,18 20,24" fill="#FFFFFF"></path>
            
            <!-- Avatar 2 -->
            <circle fill="#EA4335" cx="32" cy="14" r="12"></circle>
            <circle fill="#FFFFFF" cx="32" cy="10" r="5"></circle>
            <path d="M24,24 C24,18 28,16 32,16 C36,16 40,18 40,24" fill="#FFFFFF"></path>
            
            <!-- Avatar 3 -->
            <circle fill="#FBBC05" cx="52" cy="14" r="12"></circle>
            <circle fill="#FFFFFF" cx="52" cy="10" r="5"></circle>
            <path d="M44,24 C44,18 48,16 52,16 C56,16 60,18 60,24" fill="#FFFFFF"></path>
            
            <!-- Avatar 4 -->
            <circle fill="#34A853" cx="72" cy="14" r="12"></circle>
            <circle fill="#FFFFFF" cx="72" cy="10" r="5"></circle>
            <path d="M64,24 C64,18 68,16 72,16 C76,16 80,18 80,24" fill="#FFFFFF"></path>
        </g>
    </g>
</svg>
